<svg data-v-423bf9ae="" xmlns="http://www.w3.org/2000/svg" viewBox="0 0 467.01511139042015 163" class="iconAbove"><!----><!----><!----><g data-v-423bf9ae="" id="4a3f8744-79d5-4de4-812c-0ca180a21503" fill="black" transform="matrix(13.577733526672345,0,0,13.577733526672345,0.045264865474962335,30.372701292413495)"><path d="M2.67 9.34L2.67 9.34L2.67 9.34Q2.75 9.40 2.75 9.50L2.75 9.50L2.75 9.50Q2.75 9.72 2.48 9.72L2.48 9.72L2.48 9.72Q1.99 9.72 1.50 9.71L1.50 9.71L1.50 9.71Q1.00 9.69 0.51 9.73L0.51 9.73L0.51 9.73Q0.12 9.75 0.04 9.52L0.04 9.52L0.04 9.52Q0 9.41 0 9.19L0 9.19L0 9.19Q0.01 9.08 0.01 8.99L0.01 8.99L0.01 8.99Q0.01 8.91 0.01 8.85L0.01 8.85L0.01 8.85Q0.02 8.70 0.03 8.53L0.03 8.53L0.03 8.53Q0.04 8.37 0.03 8.22L0.03 8.22L0.03 8.22Q0.02 7.89 0.01 7.58L0.01 7.58L0.01 7.58Q-0.01 7.27 0 6.94L0 6.94L0 6.94Q0.01 6.78 0.01 6.63L0.01 6.63L0.01 6.63Q0.02 6.47 0.02 6.31L0.02 6.31L0.02 6.31Q0.03 6.11 0.02 5.94L0.02 5.94L0.02 5.94Q0.02 5.78 0.01 5.64L0.01 5.64L0.01 5.64Q-0.01 5.46 0.18 5.42L0.18 5.42L0.18 5.42Q0.44 5.37 0.46 5.74L0.46 5.74L0.46 5.74Q0.48 5.89 0.49 6.04L0.49 6.04L0.49 6.04Q0.49 6.19 0.51 6.32L0.51 6.32L0.51 6.50L0.48 6.76L0.48 6.76Q0.46 6.87 0.45 6.98L0.45 6.98L0.45 6.98Q0.44 7.09 0.44 7.19L0.44 7.19L0.44 7.19Q0.42 7.45 0.42 7.65L0.42 7.65L0.42 7.65Q0.42 7.84 0.43 7.97L0.43 7.97L0.43 7.97Q0.44 8.13 0.45 8.31L0.45 8.31L0.45 8.31Q0.45 8.49 0.44 8.69L0.44 8.69L0.44 8.69Q0.42 8.99 0.52 9.08L0.52 9.08L0.52 9.08Q0.59 9.17 0.84 9.19L0.84 9.19L0.84 9.19Q0.96 9.21 1.08 9.21L1.08 9.21L1.08 9.21Q1.20 9.22 1.33 9.24L1.33 9.24L1.33 9.24Q1.51 9.26 1.70 9.24L1.70 9.24L1.70 9.24Q1.89 9.22 2.08 9.25L2.08 9.25L2.08 9.25Q2.21 9.26 2.38 9.27L2.38 9.27L2.38 9.27Q2.56 9.28 2.67 9.34ZM8.09 9.47L8.09 9.47L8.09 9.47Q8.09 9.65 7.95 9.69L7.95 9.69L7.95 9.69Q7.83 9.75 7.73 9.61L7.73 9.61L7.73 9.61Q7.68 9.54 7.65 9.49L7.65 9.49L7.65 9.49Q7.62 9.43 7.60 9.39L7.60 9.39L7.60 9.39Q7.51 9.18 7.43 9.03L7.43 9.03L7.43 9.03Q7.36 8.87 7.28 8.78L7.28 8.78L7.28 8.78Q7.12 8.55 6.92 8.49L6.92 8.49L6.92 8.49Q6.75 8.44 6.37 8.48L6.37 8.48L6.37 8.48Q6.15 8.50 5.96 8.51L5.96 8.51L5.96 8.51Q5.76 8.52 5.58 8.50L5.58 8.50L5.58 8.50Q5.19 8.48 5.00 8.76L5.00 8.76L4.98 8.78L4.98 8.79L4.98 8.79Q4.91 8.93 4.86 9.06L4.86 9.06L4.86 9.06Q4.82 9.19 4.76 9.32L4.76 9.32L4.61 9.54L4.61 9.54Q4.52 9.69 4.42 9.70L4.42 9.70L4.42 9.70Q4.37 9.72 4.28 9.65L4.28 9.65L4.28 9.65Q4.24 9.60 4.23 9.55L4.23 9.55L4.23 9.55Q4.22 9.49 4.23 9.43L4.23 9.43L4.23 9.43Q4.24 9.37 4.26 9.30L4.26 9.30L4.26 9.30Q4.29 9.24 4.31 9.19L4.31 9.19L4.47 8.85L4.47 8.85Q4.71 8.35 4.92 7.85L4.92 7.85L4.92 7.85Q5.13 7.34 5.36 6.83L5.36 6.83L5.36 6.83Q5.40 6.74 5.43 6.66L5.43 6.66L5.43 6.66Q5.46 6.58 5.50 6.51L5.50 6.51L5.50 6.51Q5.57 6.32 5.65 6.14L5.65 6.14L5.65 6.14Q5.72 5.95 5.82 5.76L5.82 5.76L5.92 5.61L5.92 5.61Q6.00 5.48 6.06 5.48L6.06 5.48L6.06 5.48Q6.13 5.46 6.24 5.59L6.24 5.59L6.24 5.59Q6.36 5.73 6.46 5.91L6.46 5.91L6.46 5.91Q6.57 6.10 6.64 6.26L6.64 6.26L6.64 6.26Q6.88 6.77 7.09 7.28L7.09 7.28L7.09 7.28Q7.30 7.79 7.54 8.28L7.54 8.28L7.54 8.28Q7.62 8.43 7.69 8.58L7.69 8.58L7.69 8.58Q7.76 8.74 7.84 8.88L7.84 8.88L7.84 8.88Q7.88 8.98 7.93 9.08L7.93 9.08L7.93 9.08Q7.97 9.17 8.01 9.27L8.01 9.27L8.01 9.27Q8.05 9.34 8.07 9.39L8.07 9.39L8.07 9.39Q8.09 9.44 8.09 9.47ZM6.74 7.56L6.74 7.56L6.74 7.56Q6.67 7.40 6.61 7.22L6.61 7.22L6.61 7.22Q6.54 7.05 6.45 6.88L6.45 6.88L6.45 6.88Q6.29 6.57 6.09 6.58L6.09 6.58L6.09 6.58Q6.02 6.58 5.96 6.62L5.96 6.62L5.96 6.62Q5.90 6.67 5.86 6.72L5.86 6.72L5.86 6.72Q5.82 6.78 5.78 6.85L5.78 6.85L5.78 6.85Q5.75 6.92 5.73 6.98L5.73 6.98L5.73 6.98Q5.65 7.18 5.58 7.40L5.58 7.40L5.58 7.40Q5.52 7.62 5.46 7.83L5.46 7.83L5.46 7.83Q5.41 7.98 5.47 8.05L5.47 8.05L5.47 8.05Q5.51 8.12 5.68 8.13L5.68 8.13L5.68 8.13Q5.83 8.14 5.95 8.15L5.95 8.15L5.95 8.15Q6.06 8.15 6.14 8.14L6.14 8.14L6.14 8.14Q6.29 8.14 6.54 8.10L6.54 8.10L6.54 8.10Q6.79 8.06 6.84 7.88L6.84 7.88L6.84 7.88Q6.86 7.77 6.81 7.69L6.81 7.69L6.81 7.69Q6.79 7.66 6.77 7.63L6.77 7.63L6.77 7.63Q6.75 7.59 6.74 7.56ZM9.80 9.41L9.80 9.41L9.80 9.41Q9.80 9.30 9.85 9.21L9.85 9.21L9.85 9.21Q9.90 9.11 9.97 9.03L9.97 9.03L9.97 9.03Q10.04 8.94 10.11 8.87L10.11 8.87L10.11 8.87Q10.19 8.79 10.27 8.72L10.27 8.72L10.27 8.72Q10.41 8.57 10.51 8.44L10.51 8.44L10.51 8.44Q10.54 8.41 10.56 8.36L10.56 8.36L10.56 8.36Q10.59 8.31 10.62 8.26L10.62 8.26L10.62 8.26Q10.73 8.03 10.81 7.92L10.81 7.92L10.81 7.92Q10.88 7.80 11.04 7.60L11.04 7.60L11.04 7.60Q11.20 7.41 11.34 7.21L11.34 7.21L11.34 7.21Q11.48 7 11.63 6.79L11.63 6.79L11.63 6.79Q11.85 6.50 11.94 6.32L11.94 6.32L11.94 6.32Q12.06 6.07 11.96 5.92L11.96 5.92L11.96 5.92Q11.87 5.79 11.67 5.79L11.67 5.79L11.67 5.79Q11.57 5.79 11.49 5.79L11.49 5.79L11.49 5.79Q11.42 5.79 11.35 5.80L11.35 5.80L11.35 5.80Q11.12 5.82 10.90 5.84L10.90 5.84L10.90 5.84Q10.68 5.86 10.45 5.87L10.45 5.87L10.45 5.87Q10.38 5.87 10.29 5.86L10.29 5.86L10.29 5.86Q10.21 5.85 10.13 5.82L10.13 5.82L10.13 5.82Q9.96 5.77 9.95 5.58L9.95 5.58L9.95 5.58Q9.94 5.52 10.06 5.48L10.06 5.48L10.22 5.44L10.22 5.44Q10.31 5.42 10.39 5.42L10.39 5.42L10.39 5.42Q10.48 5.41 10.57 5.42L10.57 5.42L10.57 5.42Q10.70 5.43 10.79 5.43L10.79 5.43L10.79 5.43Q10.89 5.43 10.95 5.43L10.95 5.43L10.95 5.43Q11.01 5.43 11.10 5.42L11.10 5.42L11.10 5.42Q11.20 5.42 11.32 5.40L11.32 5.40L11.32 5.40Q11.40 5.39 11.49 5.38L11.49 5.38L11.49 5.38Q11.58 5.38 11.68 5.39L11.68 5.39L11.68 5.39Q11.86 5.41 12.06 5.41L12.06 5.41L12.06 5.41Q12.25 5.42 12.44 5.42L12.44 5.42L12.44 5.42Q12.72 5.42 12.80 5.54L12.80 5.54L12.80 5.54Q12.84 5.65 12.78 5.84L12.78 5.84L12.78 5.84Q12.74 5.93 12.71 6.00L12.71 6.00L12.71 6.00Q12.68 6.07 12.65 6.12L12.65 6.12L12.65 6.12Q12.52 6.37 12.33 6.59L12.33 6.59L12.33 6.59Q12.13 6.80 11.95 7.01L11.95 7.01L11.95 7.01Q11.81 7.16 11.72 7.35L11.72 7.35L11.72 7.35Q11.62 7.55 11.50 7.70L11.50 7.70L11.50 7.70Q11.29 8.02 11.06 8.31L11.06 8.31L11.06 8.31Q10.84 8.60 10.64 8.91L10.64 8.91L10.64 8.91Q10.53 9.06 10.60 9.19L10.60 9.19L10.60 9.19Q10.64 9.24 10.69 9.26L10.69 9.26L10.69 9.26Q10.74 9.28 10.80 9.29L10.80 9.29L10.80 9.29Q10.86 9.29 10.92 9.28L10.92 9.28L10.92 9.28Q10.98 9.28 11.03 9.28L11.03 9.28L11.09 9.28L11.09 9.28Q11.53 9.28 11.96 9.28L11.96 9.28L11.96 9.28Q12.40 9.28 12.84 9.28L12.84 9.28L12.84 9.28Q13.06 9.28 13.06 9.49L13.06 9.49L13.06 9.49Q13.06 9.70 12.84 9.70L12.84 9.70L12.84 9.70Q12.15 9.70 11.49 9.71L11.49 9.71L11.49 9.71Q10.83 9.71 10.15 9.70L10.15 9.70L10.15 9.70Q9.81 9.70 9.80 9.41ZM18.75 5.46L18.75 5.46L18.75 5.46Q19.04 5.45 18.88 5.76L18.88 5.76L18.88 5.76Q18.85 5.82 18.79 5.91L18.79 5.91L18.79 5.91Q18.72 6.00 18.63 6.12L18.63 6.12L18.63 6.12Q18.44 6.38 18.33 6.60L18.33 6.60L18.33 6.60Q18.22 6.80 18.09 7.01L18.09 7.01L18.09 7.01Q17.96 7.21 17.80 7.42L17.80 7.42L17.80 7.43L17.80 7.43Q17.72 7.55 17.68 7.67L17.68 7.67L17.68 7.67Q17.64 7.78 17.63 7.88L17.63 7.88L17.63 7.88Q17.62 8.00 17.63 8.12L17.63 8.12L17.63 8.12Q17.65 8.24 17.65 8.35L17.65 8.35L17.65 8.35Q17.65 8.52 17.64 8.67L17.64 8.67L17.64 8.67Q17.63 8.83 17.65 8.99L17.65 8.99L17.65 8.99Q17.66 9.05 17.66 9.13L17.66 9.13L17.66 9.13Q17.67 9.21 17.68 9.32L17.68 9.32L17.68 9.32Q17.69 9.54 17.61 9.64L17.61 9.64L17.61 9.64Q17.56 9.69 17.46 9.70L17.46 9.70L17.46 9.70Q17.24 9.72 17.22 9.38L17.22 9.38L17.22 9.38Q17.21 9.07 17.23 8.75L17.23 8.75L17.23 8.75Q17.26 8.43 17.28 8.11L17.28 8.11L17.28 8.11Q17.30 7.85 17.19 7.68L17.19 7.68L17.19 7.68Q17.14 7.61 17.09 7.51L17.09 7.51L17.09 7.51Q17.04 7.42 16.97 7.31L16.97 7.31L16.97 7.31Q16.89 7.19 16.82 7.07L16.82 7.07L16.82 7.07Q16.75 6.95 16.67 6.83L16.67 6.83L16.67 6.83Q16.59 6.70 16.54 6.60L16.54 6.60L16.54 6.60Q16.48 6.50 16.45 6.43L16.45 6.43L16.45 6.43Q16.39 6.34 16.36 6.27L16.36 6.27L16.36 6.27Q16.32 6.20 16.30 6.17L16.30 6.17L16.30 6.17Q16.27 6.13 16.23 6.08L16.23 6.08L16.23 6.08Q16.19 6.02 16.13 5.95L16.13 5.95L16.13 5.95Q15.96 5.74 15.96 5.63L15.96 5.63L15.96 5.63Q15.95 5.57 15.99 5.50L15.99 5.50L15.99 5.50Q16.18 5.28 16.35 5.53L16.35 5.53L16.35 5.53Q16.50 5.74 16.60 5.96L16.60 5.96L16.60 5.96Q16.71 6.19 16.84 6.40L16.84 6.40L16.84 6.40Q16.93 6.56 17.00 6.66L17.00 6.66L17.00 6.66Q17.08 6.77 17.14 6.83L17.14 6.83L17.14 6.83Q17.31 7.01 17.49 6.97L17.49 6.97L17.49 6.97Q17.66 6.94 17.81 6.72L17.81 6.72L17.81 6.72Q17.87 6.64 17.92 6.55L17.92 6.55L17.92 6.55Q17.98 6.46 18.04 6.37L18.04 6.37L18.04 6.37Q18.09 6.30 18.14 6.22L18.14 6.22L18.14 6.22Q18.18 6.13 18.21 6.04L18.21 6.04L18.21 6.04Q18.25 5.95 18.29 5.87L18.29 5.87L18.29 5.87Q18.33 5.78 18.39 5.69L18.39 5.69L18.39 5.69Q18.54 5.48 18.75 5.46ZM23.31 6.86L23.31 6.86L23.31 6.86Q23.29 6.90 23.28 6.96L23.28 6.96L23.28 6.96Q23.26 7.01 23.25 7.05L23.25 7.05L23.25 7.05Q23.21 7.19 23.26 7.27L23.26 7.27L23.26 7.27Q23.28 7.30 23.41 7.37L23.41 7.37L23.41 7.37Q23.47 7.41 23.57 7.53L23.57 7.53L23.57 7.53Q23.91 7.97 23.79 8.71L23.79 8.71L23.79 8.71Q23.71 9.13 23.39 9.42L23.39 9.42L23.39 9.42Q23.15 9.64 23.03 9.66L23.03 9.66L23.03 9.66Q22.97 9.67 22.86 9.68L22.86 9.68L22.86 9.68Q22.76 9.69 22.60 9.69L22.60 9.69L22.60 9.69Q22.35 9.70 22.10 9.71L22.10 9.71L22.10 9.71Q21.85 9.71 21.60 9.71L21.60 9.71L21.60 9.71Q21.40 9.71 21.24 9.71L21.24 9.71L21.24 9.71Q21.09 9.71 20.99 9.70L20.99 9.70L20.99 9.70Q20.93 9.70 20.82 9.69L20.82 9.69L20.82 9.69Q20.71 9.67 20.67 9.65L20.67 9.65L20.64 9.60L20.64 9.60Q20.63 9.58 20.62 9.55L20.62 9.55L20.62 9.55Q20.62 9.52 20.61 9.50L20.61 9.50L20.61 9.50Q20.60 9.43 20.60 9.32L20.60 9.32L20.60 8.96L20.60 8.39L20.60 8.39Q20.60 8.24 20.59 8.10L20.59 8.10L20.59 8.10Q20.58 7.96 20.58 7.81L20.58 7.81L20.58 7.81Q20.59 7.49 20.59 7.18L20.59 7.18L20.59 7.18Q20.60 6.87 20.59 6.54L20.59 6.54L20.59 6.54Q20.59 6.36 20.60 6.17L20.60 6.17L20.60 6.17Q20.61 5.97 20.62 5.79L20.62 5.79L20.62 5.79Q20.63 5.73 20.63 5.65L20.63 5.65L20.63 5.65Q20.62 5.58 20.64 5.50L20.64 5.50L20.64 5.50Q20.67 5.46 20.68 5.46L20.68 5.46L20.68 5.46Q20.74 5.41 20.86 5.41L20.86 5.41L20.86 5.41Q20.98 5.41 21.06 5.41L21.06 5.41L21.06 5.41Q21.15 5.41 21.24 5.42L21.24 5.42L21.24 5.42Q21.33 5.43 21.43 5.43L21.43 5.43L21.43 5.43Q21.61 5.43 21.81 5.44L21.81 5.44L21.81 5.44Q22.00 5.46 22.22 5.48L22.22 5.48L22.22 5.48Q22.66 5.52 22.96 5.75L22.96 5.75L22.96 5.75Q23.30 6.02 23.33 6.60L23.33 6.60L23.33 6.60Q23.33 6.69 23.31 6.86ZM21.03 8.01L21.03 8.54L21.03 8.54Q21.03 8.63 21.04 8.72L21.04 8.72L21.04 8.72Q21.04 8.81 21.05 8.90L21.05 8.90L21.05 8.90Q21.05 9.15 21.14 9.20L21.14 9.20L21.14 9.20Q21.16 9.21 21.22 9.24L21.22 9.24L21.22 9.24Q21.28 9.26 21.38 9.27L21.38 9.27L21.38 9.27Q21.44 9.28 21.52 9.28L21.52 9.28L21.52 9.28Q21.59 9.28 21.66 9.29L21.66 9.29L21.66 9.29Q21.73 9.29 21.84 9.30L21.84 9.30L21.84 9.30Q21.94 9.32 22.09 9.32L22.09 9.32L22.09 9.32Q22.27 9.32 22.46 9.30L22.46 9.30L22.46 9.30Q22.65 9.27 22.85 9.21L22.85 9.21L22.85 9.21Q23.25 9.11 23.36 8.67L23.36 8.67L23.36 8.66L23.36 8.66Q23.38 8.57 23.39 8.46L23.39 8.46L23.39 8.46Q23.39 8.35 23.38 8.24L23.38 8.24L23.38 8.24Q23.37 8.13 23.34 8.03L23.34 8.03L23.34 8.03Q23.30 7.93 23.24 7.85L23.24 7.85L23.24 7.84L23.24 7.84Q23.13 7.74 23.00 7.68L23.00 7.68L23.00 7.68Q22.87 7.62 22.73 7.60L22.73 7.60L22.73 7.60Q22.59 7.57 22.44 7.57L22.44 7.57L22.44 7.57Q22.29 7.57 22.16 7.57L22.16 7.57L22.16 7.57Q22.07 7.59 21.97 7.59L21.97 7.59L21.97 7.59Q21.88 7.60 21.79 7.61L21.79 7.61L21.79 7.61Q21.69 7.62 21.62 7.62L21.62 7.62L21.62 7.62Q21.54 7.62 21.47 7.62L21.47 7.62L21.47 7.62Q21.23 7.62 21.15 7.69L21.15 7.69L21.15 7.69Q21.03 7.79 21.03 8.01L21.03 8.01ZM22.84 6.46L22.83 6.43L22.83 6.42L22.83 6.42Q22.76 6.23 22.67 6.12L22.67 6.12L22.67 6.12Q22.58 6.01 22.46 5.94L22.46 5.94L22.46 5.94Q22.33 5.88 22.18 5.86L22.18 5.86L22.18 5.86Q22.03 5.84 21.85 5.84L21.85 5.84L21.85 5.84Q21.64 5.84 21.42 5.86L21.42 5.86L21.42 5.86Q21.15 5.89 21.07 6.04L21.07 6.04L21.07 6.04Q21.01 6.14 21.04 6.27L21.04 6.27L21.04 6.27Q21.06 6.39 21.07 6.50L21.07 6.50L21.07 6.50Q21.08 6.56 21.07 6.64L21.07 6.64L21.07 6.64Q21.07 6.73 21.05 6.83L21.05 6.83L21.05 6.83Q21.03 7.03 21.11 7.12L21.11 7.12L21.11 7.12Q21.15 7.18 21.22 7.22L21.22 7.22L21.22 7.22Q21.29 7.25 21.37 7.26L21.37 7.26L21.37 7.26Q21.45 7.27 21.53 7.27L21.53 7.27L21.53 7.27Q21.62 7.27 21.68 7.27L21.68 7.27L21.68 7.27Q21.81 7.27 21.95 7.27L21.95 7.27L21.95 7.27Q22.09 7.26 22.26 7.24L22.26 7.24L22.26 7.24Q22.61 7.18 22.77 6.96L22.77 6.96L22.77 6.96Q22.84 6.87 22.85 6.76L22.85 6.76L22.85 6.76Q22.86 6.65 22.85 6.52L22.85 6.52L22.84 6.46ZM27.04 9.69L27.04 9.69L27.04 9.69Q26.90 9.65 26.76 9.58L26.76 9.58L26.76 9.58Q26.62 9.52 26.49 9.43L26.49 9.43L26.49 9.43Q26.35 9.34 26.24 9.24L26.24 9.24L26.24 9.24Q26.12 9.13 26.04 9.01L26.04 9.01L26.04 9.01Q25.93 8.84 25.88 8.66L25.88 8.66L25.88 8.66Q25.83 8.48 25.74 8.29L25.74 8.29L25.74 8.29Q25.68 8.13 25.67 7.96L25.67 7.96L25.67 7.96Q25.66 7.88 25.65 7.79L25.65 7.79L25.65 7.79Q25.64 7.70 25.64 7.62L25.64 7.62L25.64 7.62Q25.63 7.54 25.63 7.48L25.63 7.48L25.63 7.48Q25.63 7.42 25.63 7.38L25.63 7.38L25.63 7.38Q25.63 7.25 25.65 7.11L25.65 7.11L25.65 7.11Q25.66 6.97 25.70 6.82L25.70 6.82L25.70 6.82Q25.70 6.77 25.74 6.69L25.74 6.69L25.74 6.69Q25.81 6.49 25.91 6.31L25.91 6.31L25.91 6.31Q26.02 6.13 26.15 5.97L26.15 5.97L26.15 5.97Q26.42 5.67 26.90 5.43L26.90 5.43L26.90 5.43Q27.12 5.34 27.36 5.35L27.36 5.35L27.36 5.35Q27.51 5.36 27.66 5.39L27.66 5.39L27.66 5.39Q27.78 5.41 27.87 5.42L27.87 5.42L27.87 5.42Q27.97 5.43 28.03 5.44L28.03 5.44L28.03 5.44Q28.56 5.50 28.96 5.91L28.96 5.91L28.96 5.91Q29.05 6.00 29.13 6.10L29.13 6.10L29.13 6.10Q29.21 6.21 29.29 6.33L29.29 6.33L29.32 6.38L29.32 6.38Q29.33 6.41 29.33 6.42L29.33 6.42L29.33 6.42Q29.34 6.43 29.35 6.45L29.35 6.45L29.35 6.45Q29.46 6.72 29.56 7.13L29.56 7.13L29.56 7.13Q29.65 7.51 29.59 7.83L29.59 7.83L29.59 7.83Q29.54 8.02 29.48 8.19L29.48 8.19L29.48 8.19Q29.42 8.36 29.37 8.53L29.37 8.53L29.37 8.53Q29.11 9.45 28.17 9.69L28.17 9.69L28.12 9.70L28.12 9.70Q28.06 9.71 27.98 9.73L27.98 9.73L27.98 9.73Q27.90 9.74 27.79 9.75L27.79 9.75L27.79 9.75Q27.61 9.78 27.42 9.76L27.42 9.76L27.42 9.76Q27.23 9.75 27.04 9.69ZM27.73 5.78L27.73 5.78L27.73 5.78Q27.36 5.78 27.06 5.87L27.06 5.87L27.06 5.87Q26.76 5.95 26.52 6.19L26.52 6.19L26.52 6.19Q26.20 6.52 26.11 6.92L26.11 6.92L26.11 6.92Q26.02 7.32 26.11 7.81L26.11 7.81L26.17 8.15L26.17 8.15Q26.19 8.24 26.20 8.30L26.20 8.30L26.20 8.30Q26.22 8.36 26.22 8.37L26.22 8.37L26.22 8.37Q26.26 8.52 26.39 8.66L26.39 8.66L26.39 8.66Q26.51 8.80 26.61 8.90L26.61 8.90L26.61 8.90Q26.67 8.96 26.72 9.02L26.72 9.02L26.72 9.02Q26.78 9.08 26.84 9.13L26.84 9.13L26.84 9.13Q26.94 9.21 27.18 9.29L27.18 9.29L27.19 9.29L27.19 9.29Q27.32 9.32 27.48 9.31L27.48 9.31L27.48 9.31Q27.64 9.30 27.84 9.26L27.84 9.26L27.84 9.26Q27.93 9.23 28.03 9.22L28.03 9.22L28.03 9.22Q28.13 9.21 28.23 9.18L28.23 9.18L28.23 9.18Q28.49 9.12 28.66 8.91L28.66 8.91L28.66 8.91L28.66 8.90L28.66 8.90Q28.77 8.77 28.85 8.57L28.85 8.57L28.85 8.57Q28.92 8.37 28.95 8.32L28.95 8.32L28.95 8.32Q29.29 7.65 29.05 6.87L29.05 6.87L29.05 6.86L29.05 6.86Q29.02 6.79 28.99 6.72L28.99 6.72L28.99 6.72Q28.96 6.65 28.92 6.58L28.92 6.58L28.92 6.58Q28.65 6.18 28.28 6.00L28.28 6.00L28.28 6.00Q28.27 6.00 28.22 5.97L28.22 5.97L28.22 5.97Q28.17 5.94 28.08 5.89L28.08 5.89L28.08 5.89Q27.96 5.81 27.73 5.78L27.73 5.78ZM34.21 5.46L34.21 5.46L34.21 5.46Q34.49 5.45 34.34 5.76L34.34 5.76L34.34 5.76Q34.30 5.82 34.24 5.91L34.24 5.91L34.24 5.91Q34.18 6.00 34.09 6.12L34.09 6.12L34.09 6.12Q33.89 6.38 33.78 6.60L33.78 6.60L33.78 6.60Q33.68 6.80 33.55 7.01L33.55 7.01L33.55 7.01Q33.41 7.21 33.26 7.42L33.26 7.42L33.26 7.43L33.26 7.43Q33.17 7.55 33.14 7.67L33.14 7.67L33.14 7.67Q33.10 7.78 33.09 7.88L33.09 7.88L33.09 7.88Q33.07 8.00 33.09 8.12L33.09 8.12L33.09 8.12Q33.11 8.24 33.11 8.35L33.11 8.35L33.11 8.35Q33.11 8.52 33.10 8.67L33.10 8.67L33.10 8.67Q33.09 8.83 33.11 8.99L33.11 8.99L33.11 8.99Q33.11 9.05 33.12 9.13L33.12 9.13L33.12 9.13Q33.13 9.21 33.13 9.32L33.13 9.32L33.13 9.32Q33.15 9.54 33.07 9.64L33.07 9.64L33.07 9.64Q33.02 9.69 32.92 9.70L32.92 9.70L32.92 9.70Q32.70 9.72 32.68 9.38L32.68 9.38L32.68 9.38Q32.66 9.07 32.69 8.75L32.69 8.75L32.69 8.75Q32.72 8.43 32.74 8.11L32.74 8.11L32.74 8.11Q32.76 7.85 32.65 7.68L32.65 7.68L32.65 7.68Q32.59 7.61 32.54 7.51L32.54 7.51L32.54 7.51Q32.49 7.42 32.42 7.31L32.42 7.31L32.42 7.31Q32.35 7.19 32.28 7.07L32.28 7.07L32.28 7.07Q32.20 6.95 32.13 6.83L32.13 6.83L32.13 6.83Q32.05 6.70 31.99 6.60L31.99 6.60L31.99 6.60Q31.94 6.50 31.90 6.43L31.90 6.43L31.90 6.43Q31.85 6.34 31.81 6.27L31.81 6.27L31.81 6.27Q31.78 6.20 31.75 6.17L31.75 6.17L31.75 6.17Q31.73 6.13 31.68 6.08L31.68 6.08L31.68 6.08Q31.64 6.02 31.59 5.95L31.59 5.95L31.59 5.95Q31.42 5.74 31.42 5.63L31.42 5.63L31.42 5.63Q31.40 5.57 31.45 5.50L31.45 5.50L31.45 5.50Q31.64 5.28 31.81 5.53L31.81 5.53L31.81 5.53Q31.95 5.74 32.06 5.96L32.06 5.96L32.06 5.96Q32.17 6.19 32.29 6.40L32.29 6.40L32.29 6.40Q32.39 6.56 32.46 6.66L32.46 6.66L32.46 6.66Q32.53 6.77 32.60 6.83L32.60 6.83L32.60 6.83Q32.76 7.01 32.95 6.97L32.95 6.97L32.95 6.97Q33.11 6.94 33.26 6.72L33.26 6.72L33.26 6.72Q33.33 6.64 33.38 6.55L33.38 6.55L33.38 6.55Q33.43 6.46 33.50 6.37L33.50 6.37L33.50 6.37Q33.55 6.30 33.59 6.22L33.59 6.22L33.59 6.22Q33.63 6.13 33.67 6.04L33.67 6.04L33.67 6.04Q33.71 5.95 33.75 5.87L33.75 5.87L33.75 5.87Q33.79 5.78 33.84 5.69L33.84 5.69L33.84 5.69Q34.00 5.48 34.21 5.46Z"></path></g><!----><g data-v-423bf9ae="" id="30075b31-00be-4b5a-b9a0-3fae72f5930c" transform="matrix(1.1620775043420979,0,0,1.1620775043420979,176.12569781339863,-13.989742586419666)" stroke="none" fill="black"><path d="M83.365 32.672l-.007-.05a2.307 2.307 0 0 0-1.137-1.833L50.695 12.587a2.322 2.322 0 0 0-2.32 0L16.848 30.789a2.31 2.31 0 0 0-1.137 1.833l-.007.05c-.002.042-.017.083-.017.125v36.405a2.32 2.32 0 0 0 1.16 2.009l31.527 18.202c.026.015.056.02.082.034.126.066.257.121.395.163.046.014.09.031.136.042.176.043.357.072.546.072s.37-.029.546-.072c.046-.011.091-.028.136-.042a2.36 2.36 0 0 0 .395-.163c.027-.014.056-.019.082-.034l31.527-18.202a2.32 2.32 0 0 0 1.16-2.009V32.798c.002-.043-.012-.083-.014-.126zm-33.83-15.398l27.006 15.592-27.006 15.592-27.007-15.592 27.007-15.592zM20.328 36.952l25.141 14.515a.74.74 0 0 0-.282.097l-2.622 1.515a.772.772 0 1 0 .774 1.339l2.622-1.515a.765.765 0 0 0 .312-.971l.943.545v30.91L20.328 67.863V36.952zm31.526 46.434v-30.91l.944-.545a.765.765 0 0 0 .311.972l2.622 1.515a.776.776 0 0 0 1.057-.283.772.772 0 0 0-.283-1.056l-2.622-1.515a.769.769 0 0 0-.283-.097l25.141-14.516v30.91L51.854 83.386z"></path><path d="M72.241 62.163l-2.622-1.515a.769.769 0 0 0-1.056.282.772.772 0 0 0 .283 1.056l2.622 1.515a.776.776 0 0 0 1.057-.283.772.772 0 0 0-.284-1.055zM77.487 65.191l-2.622-1.515a.772.772 0 1 0-.773 1.338l2.622 1.515a.776.776 0 0 0 1.057-.283.772.772 0 0 0-.284-1.055zM66.996 59.135l-2.622-1.515a.772.772 0 1 0-.773 1.338l2.622 1.515a.777.777 0 0 0 1.057-.282.773.773 0 0 0-.284-1.056zM61.751 56.107l-2.622-1.515a.772.772 0 1 0-.773 1.338l2.622 1.515a.776.776 0 0 0 1.057-.283.772.772 0 0 0-.284-1.055zM24.206 63.678l-2.622 1.513a.772.772 0 1 0 .773 1.339l2.622-1.513a.772.772 0 0 0 .283-1.056.77.77 0 0 0-1.056-.283zM39.942 54.593l-2.623 1.515a.772.772 0 1 0 .774 1.339l2.623-1.515a.772.772 0 0 0 .283-1.056.768.768 0 0 0-1.057-.283zM29.452 60.65l-2.622 1.513a.772.772 0 1 0 .774 1.339l2.622-1.513a.772.772 0 0 0 .283-1.056.77.77 0 0 0-1.057-.283zM34.697 57.621l-2.622 1.515a.772.772 0 1 0 .774 1.338l2.622-1.515a.772.772 0 1 0-.774-1.338z"></path></g><!----></svg>